<mxfile host="65bd71144e">
    <diagram id="iw8tILbxOcfsidWfIFgm" name="Page-1">
        <mxGraphModel dx="1004" dy="657" grid="1" gridSize="10" guides="1" tooltips="1" connect="1" arrows="1" fold="1" page="1" pageScale="1" pageWidth="5000" pageHeight="5000" math="0" shadow="0">
            <root>
                <mxCell id="0"/>
                <mxCell id="1" parent="0"/>
                <mxCell id="25" value="" style="whiteSpace=wrap;html=1;movable=1;resizable=1;rotatable=1;deletable=1;editable=1;connectable=1;" parent="1" vertex="1">
                    <mxGeometry x="270" y="320" width="510" height="200" as="geometry"/>
                </mxCell>
                <mxCell id="2" value="CenÃ¡rio 1" style="text;html=1;align=center;verticalAlign=middle;resizable=0;points=[];autosize=50;strokeColor=none;fillColor=none;fontSize=40;" parent="1" vertex="1">
                    <mxGeometry x="110" y="40" width="80" height="30" as="geometry"/>
                </mxCell>
                <mxCell id="4" value="MySQL" style="shape=cylinder3;whiteSpace=wrap;html=1;boundedLbl=1;backgroundOutline=1;size=15;" parent="1" vertex="1">
                    <mxGeometry x="654.5" y="790" width="63" height="77" as="geometry"/>
                </mxCell>
                <mxCell id="12" style="edgeStyle=none;html=1;entryX=0.5;entryY=0;entryDx=0;entryDy=0;entryPerimeter=0;" parent="1" source="9" target="4" edge="1">
                    <mxGeometry relative="1" as="geometry"/>
                </mxCell>
                <mxCell id="182" style="edgeStyle=none;html=1;entryX=0.447;entryY=0.935;entryDx=0;entryDy=0;entryPerimeter=0;fontSize=20;" parent="1" source="9" target="180" edge="1">
                    <mxGeometry relative="1" as="geometry"/>
                </mxCell>
                <mxCell id="9" value="" style="whiteSpace=wrap;html=1;" parent="1" vertex="1">
                    <mxGeometry x="630" y="343" width="115" height="110" as="geometry"/>
                </mxCell>
                <mxCell id="10" value="Core API" style="whiteSpace=wrap;html=1;" parent="1" vertex="1">
                    <mxGeometry x="647.5" y="363" width="80" height="70" as="geometry"/>
                </mxCell>
                <mxCell id="13" value="Container" style="text;html=1;align=center;verticalAlign=middle;resizable=0;points=[];autosize=1;strokeColor=none;fillColor=none;" parent="1" vertex="1">
                    <mxGeometry x="647.5" y="323" width="80" height="30" as="geometry"/>
                </mxCell>
                <mxCell id="17" style="edgeStyle=none;html=1;entryX=0;entryY=0.5;entryDx=0;entryDy=0;" parent="1" source="14" target="18" edge="1">
                    <mxGeometry relative="1" as="geometry">
                        <mxPoint x="360" y="395" as="targetPoint"/>
                    </mxGeometry>
                </mxCell>
                <mxCell id="14" value="" style="verticalLabelPosition=bottom;html=1;verticalAlign=top;align=center;strokeColor=none;fillColor=#00BEF2;shape=mxgraph.azure.user;" parent="1" vertex="1">
                    <mxGeometry x="30" y="370" width="47.5" height="50" as="geometry"/>
                </mxCell>
                <mxCell id="15" value="TLS&lt;br&gt;latsencrypt" style="text;html=1;align=center;verticalAlign=middle;resizable=0;points=[];autosize=1;strokeColor=none;fillColor=none;" parent="1" vertex="1">
                    <mxGeometry x="160" y="400" width="80" height="40" as="geometry"/>
                </mxCell>
                <mxCell id="23" style="edgeStyle=none;html=1;entryX=0;entryY=0.5;entryDx=0;entryDy=0;" parent="1" target="9" edge="1">
                    <mxGeometry relative="1" as="geometry">
                        <mxPoint x="525" y="397.58064516129036" as="sourcePoint"/>
                        <mxPoint x="630" y="403" as="targetPoint"/>
                    </mxGeometry>
                </mxCell>
                <mxCell id="18" value="" style="whiteSpace=wrap;html=1;" parent="1" vertex="1">
                    <mxGeometry x="425" y="350" width="100" height="90" as="geometry"/>
                </mxCell>
                <mxCell id="19" value="" style="shape=step;perimeter=stepPerimeter;whiteSpace=wrap;html=1;fixedSize=1;" parent="1" vertex="1">
                    <mxGeometry x="435" y="367" width="80" height="50" as="geometry"/>
                </mxCell>
                <mxCell id="20" value="NGINX" style="text;html=1;align=center;verticalAlign=middle;resizable=0;points=[];autosize=1;strokeColor=none;fillColor=none;" parent="1" vertex="1">
                    <mxGeometry x="435" y="410" width="60" height="30" as="geometry"/>
                </mxCell>
                <mxCell id="21" value="Container" style="text;html=1;align=center;verticalAlign=middle;resizable=0;points=[];autosize=1;strokeColor=none;fillColor=none;" parent="1" vertex="1">
                    <mxGeometry x="435" y="330" width="80" height="30" as="geometry"/>
                </mxCell>
                <mxCell id="24" value="Aurora" style="text;html=1;align=center;verticalAlign=middle;resizable=0;points=[];autosize=1;strokeColor=none;fillColor=none;" parent="1" vertex="1">
                    <mxGeometry x="654.5" y="867" width="60" height="30" as="geometry"/>
                </mxCell>
                <mxCell id="26" style="edgeStyle=none;html=1;exitX=0;exitY=1;exitDx=0;exitDy=0;entryX=0.003;entryY=0.9;entryDx=0;entryDy=0;entryPerimeter=0;" parent="1" source="25" target="25" edge="1">
                    <mxGeometry relative="1" as="geometry"/>
                </mxCell>
                <mxCell id="29" value="t3.small" style="text;html=1;align=center;verticalAlign=middle;resizable=0;points=[];autosize=1;strokeColor=none;fillColor=none;" parent="1" vertex="1">
                    <mxGeometry x="280" y="490" width="60" height="30" as="geometry"/>
                </mxCell>
                <mxCell id="33" value="Armazenamento estimado" style="text;html=1;align=center;verticalAlign=middle;resizable=0;points=[];autosize=1;strokeColor=none;fillColor=none;fontSize=40;" parent="1" vertex="1">
                    <mxGeometry x="1110" y="40" width="490" height="60" as="geometry"/>
                </mxCell>
                <mxCell id="47" value="Table urls" style="shape=table;startSize=30;container=1;collapsible=0;childLayout=tableLayout;fontStyle=1;align=center;fontSize=20;" parent="1" vertex="1">
                    <mxGeometry x="1120" y="130" width="400" height="310" as="geometry"/>
                </mxCell>
                <mxCell id="48" value="" style="shape=tableRow;horizontal=0;startSize=0;swimlaneHead=0;swimlaneBody=0;top=0;left=0;bottom=0;right=0;collapsible=0;dropTarget=0;fillColor=none;points=[[0,0.5],[1,0.5]];portConstraint=eastwest;fontSize=20;" parent="47" vertex="1">
                    <mxGeometry y="30" width="400" height="56" as="geometry"/>
                </mxCell>
                <mxCell id="49" value="PK" style="shape=partialRectangle;html=1;whiteSpace=wrap;connectable=0;fillColor=none;top=0;left=0;bottom=0;right=0;overflow=hidden;fontSize=20;" parent="48" vertex="1">
                    <mxGeometry width="100" height="56" as="geometry">
                        <mxRectangle width="100" height="56" as="alternateBounds"/>
                    </mxGeometry>
                </mxCell>
                <mxCell id="50" value="hash: VARCHAR(6)" style="shape=partialRectangle;html=1;whiteSpace=wrap;connectable=0;fillColor=none;top=0;left=0;bottom=0;right=0;overflow=hidden;fontSize=20;" parent="48" vertex="1">
                    <mxGeometry x="100" width="300" height="56" as="geometry">
                        <mxRectangle width="300" height="56" as="alternateBounds"/>
                    </mxGeometry>
                </mxCell>
                <mxCell id="141" style="shape=tableRow;horizontal=0;startSize=0;swimlaneHead=0;swimlaneBody=0;top=0;left=0;bottom=0;right=0;collapsible=0;dropTarget=0;fillColor=none;points=[[0,0.5],[1,0.5]];portConstraint=eastwest;fontSize=20;" parent="47" vertex="1">
                    <mxGeometry y="86" width="400" height="56" as="geometry"/>
                </mxCell>
                <mxCell id="142" style="shape=partialRectangle;html=1;whiteSpace=wrap;connectable=0;fillColor=none;top=0;left=0;bottom=0;right=0;overflow=hidden;fontSize=20;" parent="141" vertex="1">
                    <mxGeometry width="100" height="56" as="geometry">
                        <mxRectangle width="100" height="56" as="alternateBounds"/>
                    </mxGeometry>
                </mxCell>
                <mxCell id="143" value="target_url: VARCHAR" style="shape=partialRectangle;html=1;whiteSpace=wrap;connectable=0;fillColor=none;top=0;left=0;bottom=0;right=0;overflow=hidden;fontSize=20;" parent="141" vertex="1">
                    <mxGeometry x="100" width="300" height="56" as="geometry">
                        <mxRectangle width="300" height="56" as="alternateBounds"/>
                    </mxGeometry>
                </mxCell>
                <mxCell id="145" style="shape=tableRow;horizontal=0;startSize=0;swimlaneHead=0;swimlaneBody=0;top=0;left=0;bottom=0;right=0;collapsible=0;dropTarget=0;fillColor=none;points=[[0,0.5],[1,0.5]];portConstraint=eastwest;fontSize=20;" parent="47" vertex="1">
                    <mxGeometry y="142" width="400" height="56" as="geometry"/>
                </mxCell>
                <mxCell id="146" style="shape=partialRectangle;html=1;whiteSpace=wrap;connectable=0;fillColor=none;top=0;left=0;bottom=0;right=0;overflow=hidden;fontSize=20;" parent="145" vertex="1">
                    <mxGeometry width="100" height="56" as="geometry">
                        <mxRectangle width="100" height="56" as="alternateBounds"/>
                    </mxGeometry>
                </mxCell>
                <mxCell id="147" value="created_at: DATETIME(3)" style="shape=partialRectangle;html=1;whiteSpace=wrap;connectable=0;fillColor=none;top=0;left=0;bottom=0;right=0;overflow=hidden;fontSize=20;" parent="145" vertex="1">
                    <mxGeometry x="100" width="300" height="56" as="geometry">
                        <mxRectangle width="300" height="56" as="alternateBounds"/>
                    </mxGeometry>
                </mxCell>
                <mxCell id="149" style="shape=tableRow;horizontal=0;startSize=0;swimlaneHead=0;swimlaneBody=0;top=0;left=0;bottom=0;right=0;collapsible=0;dropTarget=0;fillColor=none;points=[[0,0.5],[1,0.5]];portConstraint=eastwest;fontSize=20;" parent="47" vertex="1">
                    <mxGeometry y="198" width="400" height="56" as="geometry"/>
                </mxCell>
                <mxCell id="150" style="shape=partialRectangle;html=1;whiteSpace=wrap;connectable=0;fillColor=none;top=0;left=0;bottom=0;right=0;overflow=hidden;fontSize=20;" parent="149" vertex="1">
                    <mxGeometry width="100" height="56" as="geometry">
                        <mxRectangle width="100" height="56" as="alternateBounds"/>
                    </mxGeometry>
                </mxCell>
                <mxCell id="151" value="expires_at: DATETIME(3)" style="shape=partialRectangle;html=1;whiteSpace=wrap;connectable=0;fillColor=none;top=0;left=0;bottom=0;right=0;overflow=hidden;fontSize=20;" parent="149" vertex="1">
                    <mxGeometry x="100" width="300" height="56" as="geometry">
                        <mxRectangle width="300" height="56" as="alternateBounds"/>
                    </mxGeometry>
                </mxCell>
                <mxCell id="153" style="shape=tableRow;horizontal=0;startSize=0;swimlaneHead=0;swimlaneBody=0;top=0;left=0;bottom=0;right=0;collapsible=0;dropTarget=0;fillColor=none;points=[[0,0.5],[1,0.5]];portConstraint=eastwest;fontSize=20;" parent="47" vertex="1">
                    <mxGeometry y="254" width="400" height="56" as="geometry"/>
                </mxCell>
                <mxCell id="154" value="FK" style="shape=partialRectangle;html=1;whiteSpace=wrap;connectable=0;fillColor=none;top=0;left=0;bottom=0;right=0;overflow=hidden;fontSize=20;" parent="153" vertex="1">
                    <mxGeometry width="100" height="56" as="geometry">
                        <mxRectangle width="100" height="56" as="alternateBounds"/>
                    </mxGeometry>
                </mxCell>
                <mxCell id="155" value="user_id: VARCHAR(36)" style="shape=partialRectangle;html=1;whiteSpace=wrap;connectable=0;fillColor=none;top=0;left=0;bottom=0;right=0;overflow=hidden;fontSize=20;" parent="153" vertex="1">
                    <mxGeometry x="100" width="300" height="56" as="geometry">
                        <mxRectangle width="300" height="56" as="alternateBounds"/>
                    </mxGeometry>
                </mxCell>
                <mxCell id="157" value="Table users" style="shape=table;startSize=30;container=1;collapsible=0;childLayout=tableLayout;fontStyle=1;align=center;fontSize=20;" parent="1" vertex="1">
                    <mxGeometry x="1120" y="481" width="400" height="310" as="geometry"/>
                </mxCell>
                <mxCell id="158" value="" style="shape=tableRow;horizontal=0;startSize=0;swimlaneHead=0;swimlaneBody=0;top=0;left=0;bottom=0;right=0;collapsible=0;dropTarget=0;fillColor=none;points=[[0,0.5],[1,0.5]];portConstraint=eastwest;fontSize=20;" parent="157" vertex="1">
                    <mxGeometry y="30" width="400" height="56" as="geometry"/>
                </mxCell>
                <mxCell id="159" value="PK" style="shape=partialRectangle;html=1;whiteSpace=wrap;connectable=0;fillColor=none;top=0;left=0;bottom=0;right=0;overflow=hidden;fontSize=20;" parent="158" vertex="1">
                    <mxGeometry width="100" height="56" as="geometry">
                        <mxRectangle width="100" height="56" as="alternateBounds"/>
                    </mxGeometry>
                </mxCell>
                <mxCell id="160" value="id: VARCHAR(36)" style="shape=partialRectangle;html=1;whiteSpace=wrap;connectable=0;fillColor=none;top=0;left=0;bottom=0;right=0;overflow=hidden;fontSize=20;" parent="158" vertex="1">
                    <mxGeometry x="100" width="300" height="56" as="geometry">
                        <mxRectangle width="300" height="56" as="alternateBounds"/>
                    </mxGeometry>
                </mxCell>
                <mxCell id="161" style="shape=tableRow;horizontal=0;startSize=0;swimlaneHead=0;swimlaneBody=0;top=0;left=0;bottom=0;right=0;collapsible=0;dropTarget=0;fillColor=none;points=[[0,0.5],[1,0.5]];portConstraint=eastwest;fontSize=20;" parent="157" vertex="1">
                    <mxGeometry y="86" width="400" height="56" as="geometry"/>
                </mxCell>
                <mxCell id="162" style="shape=partialRectangle;html=1;whiteSpace=wrap;connectable=0;fillColor=none;top=0;left=0;bottom=0;right=0;overflow=hidden;fontSize=20;" parent="161" vertex="1">
                    <mxGeometry width="100" height="56" as="geometry">
                        <mxRectangle width="100" height="56" as="alternateBounds"/>
                    </mxGeometry>
                </mxCell>
                <mxCell id="163" value="name: VARCHAR(255)" style="shape=partialRectangle;html=1;whiteSpace=wrap;connectable=0;fillColor=none;top=0;left=0;bottom=0;right=0;overflow=hidden;fontSize=20;" parent="161" vertex="1">
                    <mxGeometry x="100" width="300" height="56" as="geometry">
                        <mxRectangle width="300" height="56" as="alternateBounds"/>
                    </mxGeometry>
                </mxCell>
                <mxCell id="164" style="shape=tableRow;horizontal=0;startSize=0;swimlaneHead=0;swimlaneBody=0;top=0;left=0;bottom=0;right=0;collapsible=0;dropTarget=0;fillColor=none;points=[[0,0.5],[1,0.5]];portConstraint=eastwest;fontSize=20;" parent="157" vertex="1">
                    <mxGeometry y="142" width="400" height="56" as="geometry"/>
                </mxCell>
                <mxCell id="165" value="Unique" style="shape=partialRectangle;html=1;whiteSpace=wrap;connectable=0;fillColor=none;top=0;left=0;bottom=0;right=0;overflow=hidden;fontSize=20;" parent="164" vertex="1">
                    <mxGeometry width="100" height="56" as="geometry">
                        <mxRectangle width="100" height="56" as="alternateBounds"/>
                    </mxGeometry>
                </mxCell>
                <mxCell id="166" value="email: VARCHAR(255)" style="shape=partialRectangle;html=1;whiteSpace=wrap;connectable=0;fillColor=none;top=0;left=0;bottom=0;right=0;overflow=hidden;fontSize=20;" parent="164" vertex="1">
                    <mxGeometry x="100" width="300" height="56" as="geometry">
                        <mxRectangle width="300" height="56" as="alternateBounds"/>
                    </mxGeometry>
                </mxCell>
                <mxCell id="167" style="shape=tableRow;horizontal=0;startSize=0;swimlaneHead=0;swimlaneBody=0;top=0;left=0;bottom=0;right=0;collapsible=0;dropTarget=0;fillColor=none;points=[[0,0.5],[1,0.5]];portConstraint=eastwest;fontSize=20;" parent="157" vertex="1">
                    <mxGeometry y="198" width="400" height="56" as="geometry"/>
                </mxCell>
                <mxCell id="168" style="shape=partialRectangle;html=1;whiteSpace=wrap;connectable=0;fillColor=none;top=0;left=0;bottom=0;right=0;overflow=hidden;fontSize=20;" parent="167" vertex="1">
                    <mxGeometry width="100" height="56" as="geometry">
                        <mxRectangle width="100" height="56" as="alternateBounds"/>
                    </mxGeometry>
                </mxCell>
                <mxCell id="169" value="created_at: DATETIME(3)" style="shape=partialRectangle;html=1;whiteSpace=wrap;connectable=0;fillColor=none;top=0;left=0;bottom=0;right=0;overflow=hidden;fontSize=20;" parent="167" vertex="1">
                    <mxGeometry x="100" width="300" height="56" as="geometry">
                        <mxRectangle width="300" height="56" as="alternateBounds"/>
                    </mxGeometry>
                </mxCell>
                <mxCell id="170" style="shape=tableRow;horizontal=0;startSize=0;swimlaneHead=0;swimlaneBody=0;top=0;left=0;bottom=0;right=0;collapsible=0;dropTarget=0;fillColor=none;points=[[0,0.5],[1,0.5]];portConstraint=eastwest;fontSize=20;" parent="157" vertex="1">
                    <mxGeometry y="254" width="400" height="56" as="geometry"/>
                </mxCell>
                <mxCell id="171" value="FK" style="shape=partialRectangle;html=1;whiteSpace=wrap;connectable=0;fillColor=none;top=0;left=0;bottom=0;right=0;overflow=hidden;fontSize=20;" parent="170" vertex="1">
                    <mxGeometry width="100" height="56" as="geometry">
                        <mxRectangle width="100" height="56" as="alternateBounds"/>
                    </mxGeometry>
                </mxCell>
                <mxCell id="172" value="password: VARCHAR(255)" style="shape=partialRectangle;html=1;whiteSpace=wrap;connectable=0;fillColor=none;top=0;left=0;bottom=0;right=0;overflow=hidden;fontSize=20;" parent="170" vertex="1">
                    <mxGeometry x="100" width="300" height="56" as="geometry">
                        <mxRectangle width="300" height="56" as="alternateBounds"/>
                    </mxGeometry>
                </mxCell>
                <mxCell id="175" value="DATETIME = 8 bytes&lt;br&gt;VARCHAR(n) = n * 2 bytes&lt;br&gt;INT = 4 bytes&lt;br&gt;&lt;br&gt;&amp;nbsp;- Cada row estimado em 750 bytes" style="text;html=1;align=left;verticalAlign=middle;resizable=0;points=[];autosize=1;strokeColor=none;fillColor=none;fontSize=20;flipH=0;flipV=1;" parent="1" vertex="1">
                    <mxGeometry x="1750" y="230" width="340" height="130" as="geometry"/>
                </mxCell>
                <mxCell id="177" value="New Relic&amp;nbsp;" style="ellipse;shape=cloud;whiteSpace=wrap;html=1;fontSize=20;" parent="1" vertex="1">
                    <mxGeometry x="540" y="60" width="170" height="80" as="geometry"/>
                </mxCell>
                <mxCell id="180" value="AWS &lt;br&gt;Secret Manager" style="ellipse;shape=cloud;whiteSpace=wrap;html=1;fontSize=20;" parent="1" vertex="1">
                    <mxGeometry x="740" y="35" width="245" height="130" as="geometry"/>
                </mxCell>
                <mxCell id="183" value="" style="edgeStyle=none;orthogonalLoop=1;jettySize=auto;html=1;endArrow=classic;startArrow=classic;endSize=8;startSize=8;exitX=0.518;exitY=1;exitDx=0;exitDy=0;exitPerimeter=0;" parent="1" source="177" target="10" edge="1">
                    <mxGeometry width="100" relative="1" as="geometry">
                        <mxPoint x="590" y="190" as="sourcePoint"/>
                        <mxPoint x="690" y="190" as="targetPoint"/>
                        <Array as="points"/>
                    </mxGeometry>
                </mxCell>
            </root>
        </mxGraphModel>
    </diagram>
</mxfile>